<svg aria-hidden="true" style="position: absolute; width: 0; height: 0; overflow: hidden;" version="1.1" xmlns="http://www.w3.org/2000/svg" xmlns:xlink="http://www.w3.org/1999/xlink">
<defs>
<symbol id="icon-comment" viewBox="0 0 33 32">
<path d="M16.552 0.276c-9.127 0-16.552 6.682-16.552 14.897 0 2.871 0.908 5.652 2.631 8.057-0.326 3.607-1.2 6.284-2.469 7.553-0.168 0.168-0.21 0.424-0.104 0.636 0.094 0.189 0.287 0.306 0.494 0.306 0.025 0 0.051-0.002 0.077-0.006 0.223-0.031 5.414-0.779 9.169-2.946 2.132 0.86 4.403 1.296 6.755 1.296 9.127 0 16.552-6.682 16.552-14.897s-7.425-14.897-16.552-14.897z"></path>
<path d="M8.827 17.379c-1.217 0-2.207-0.99-2.207-2.207s0.99-2.207 2.207-2.207 2.207 0.99 2.207 2.207c0 1.217-0.99 2.207-2.207 2.207z"></path>
<path d="M16.552 17.379c-1.217 0-2.207-0.99-2.207-2.207s0.99-2.207 2.207-2.207 2.207 0.99 2.207 2.207c0 1.217-0.99 2.207-2.207 2.207z"></path>
<path d="M24.276 17.379c-1.217 0-2.207-0.99-2.207-2.207s0.99-2.207 2.207-2.207 2.207 0.99 2.207 2.207c0 1.217-0.99 2.207-2.207 2.207z"></path>
</symbol>
<symbol id="icon-share" viewBox="0 0 25 32">
<path d="M24.375 6.563v24.5c0 0.525-0.412 0.937-0.938 0.937h-22.5c-0.525 0-0.938-0.412-0.938-0.937v-30.125c0-0.525 0.412-0.938 0.938-0.938h15l1.875 3.281 1.875 1.406 4.688 1.875z"></path>
<path d="M24 5.812l-7.5-5.625c-0.169-0.113-0.356-0.187-0.563-0.187v5.625c0 0.518 0.42 0.938 0.938 0.938h7.5c0-0.3-0.131-0.581-0.375-0.75z"></path>
<path d="M9.232 18.252c-0.275-0.439-0.141-1.017 0.298-1.292l4.321-2.699c0.438-0.271 1.018-0.14 1.291 0.299 0.275 0.439 0.141 1.017-0.298 1.292l-4.321 2.699c-0.434 0.271-1.015 0.144-1.291-0.299z"></path>
<path d="M13.852 23.239l-4.321-2.699c-0.439-0.275-0.573-0.853-0.298-1.292 0.275-0.44 0.857-0.569 1.291-0.299l4.321 2.699c0.439 0.275 0.573 0.853 0.298 1.292-0.276 0.443-0.857 0.571-1.291 0.299z"></path>
<path d="M8.437 21.563c-1.551 0-2.812-1.262-2.812-2.813s1.262-2.813 2.812-2.813c1.551 0 2.813 1.262 2.813 2.813s-1.262 2.813-2.813 2.813z"></path>
<path d="M15.937 16.875c-1.551 0-2.812-1.262-2.812-2.812s1.262-2.813 2.812-2.813c1.551 0 2.813 1.262 2.813 2.813s-1.262 2.812-2.813 2.812z"></path>
<path d="M15.937 26.25c-1.551 0-2.812-1.262-2.812-2.813s1.262-2.812 2.812-2.812c1.551 0 2.813 1.262 2.813 2.812s-1.262 2.813-2.813 2.813z"></path>
</symbol>
<symbol id="icon-shield" viewBox="0 0 28 32">
<path d="M27.472 4.020l-13.307-3.992c-0.125-0.037-0.257-0.037-0.382 0l-13.307 3.992c-0.282 0.084-0.475 0.343-0.475 0.637v14.638c0 5.883 8.972 11.117 13.776 12.613 0.13 0.041 0.269 0.041 0.399 0 4.799-1.496 13.77-6.73 13.77-12.613v-14.638c0-0.294-0.192-0.553-0.474-0.637z"></path>
<path d="M12.643 21.292c-0.177 0-0.346-0.070-0.471-0.194l-5.323-5.323c-0.255-0.264-0.248-0.686 0.016-0.941 0.258-0.249 0.667-0.249 0.924 0l4.853 4.852 8.844-8.844c0.255-0.264 0.676-0.272 0.941-0.016s0.272 0.676 0.016 0.941c-0.005 0.006-0.011 0.011-0.016 0.016l-9.315 9.315c-0.125 0.124-0.294 0.194-0.47 0.194z"></path>
</symbol>
<symbol id="icon-download" viewBox="0 0 34 32">
<path d="M27.125 8.456c-1.134-5.692-6.668-9.386-12.36-8.252-4.163 0.83-7.418 4.083-8.251 8.245-4.036 0.465-6.931 4.114-6.466 8.149 0.428 3.714 3.574 6.517 7.313 6.514h5.254c0.58 0 1.051-0.471 1.051-1.051s-0.47-1.051-1.051-1.051h-5.254c-2.902-0.017-5.24-2.383-5.223-5.285s2.383-5.241 5.285-5.223c0.536 0 0.986-0.403 1.044-0.935 0.534-4.612 4.705-7.918 9.317-7.385 3.878 0.448 6.936 3.507 7.385 7.385 0.088 0.542 0.558 0.939 1.107 0.935 2.902 0 5.254 2.352 5.254 5.254s-2.352 5.254-5.254 5.254h-5.254c-0.58 0-1.051 0.47-1.051 1.051s0.47 1.051 1.051 1.051h5.254c4.062-0.025 7.335-3.339 7.31-7.402-0.023-3.7-2.79-6.806-6.462-7.256z"></path>
<path d="M20.534 25.268l-2.664 2.665v-13.226c0-0.58-0.47-1.051-1.051-1.051s-1.051 0.47-1.051 1.051v13.226l-2.664-2.665c-0.403-0.418-1.069-0.429-1.486-0.026s-0.429 1.068-0.026 1.486c0.009 0.009 0.017 0.017 0.026 0.026l4.457 4.458c0.097 0.097 0.213 0.174 0.34 0.227 0.259 0.109 0.55 0.109 0.809 0 0.127-0.053 0.242-0.13 0.339-0.227l4.457-4.458c0.417-0.403 0.429-1.068 0.026-1.486s-1.068-0.429-1.486-0.026c-0.009 0.008-0.017 0.017-0.026 0.026z"></path>
</symbol>
<symbol id="icon-windos" viewBox="0 0 76 32">
<path d="M32 5.005v22c0 0.56-0.44 1-1 1h-12.86c-0.38-3.56-0.040-9.1 0.86-11 0 0-4.12 0-6 0 0-4.18 1.94-9.5 3.9-13h14.1c0.56 0 1 0.44 1 1z"></path>
<path d="M18.14 28.005h-17.14c-0.56 0-1-0.44-1-1v-22c0-0.56 0.44-1 1-1h15.9c-1.96 3.5-3.9 8.82-3.9 13 1.88 0 6 0 6 0-0.9 1.9-1.24 7.44-0.86 11z"></path>
<path d="M18.974 31.995c-0.246 0-0.49-0.092-0.682-0.284-1.672-1.672-1.6-9.766-0.66-13.706h-4.632c-0.552 0-1-0.448-1-1 0-6.042 3.758-14.172 6.292-16.708 0.39-0.39 1.024-0.39 1.414 0s0.39 1.024 0 1.414c-1.888 1.89-5.282 8.792-5.67 14.294h4.964c0.342 0 0.66 0.174 0.844 0.462 0.184 0.29 0.208 0.652 0.062 0.96-1.226 2.622-1.178 11.784-0.198 12.872 0.364 0.402 0.356 1.040-0.038 1.412-0.196 0.188-0.448 0.284-0.696 0.284z"></path>
<path d="M16 24.005c-1.904 0-5.362-0.542-9.356-2.066-0.516-0.196-0.774-0.774-0.578-1.29 0.196-0.518 0.774-0.78 1.292-0.578 3.744 1.428 6.996 1.934 8.642 1.934s4.898-0.506 8.644-1.934c0.512-0.2 1.094 0.058 1.29 0.578 0.198 0.516-0.060 1.094-0.578 1.29-3.994 1.524-7.452 2.066-9.356 2.066z"></path>
<path d="M9 12.005c-0.552 0-1-0.448-1-1v-2c0-0.552 0.448-1 1-1s1 0.448 1 1v2c0 0.552-0.448 1-1 1z"></path>
<path d="M21 12.005c-0.552 0-1-0.448-1-1v-2c0-0.552 0.448-1 1-1s1 0.448 1 1v2c0 0.552-0.448 1-1 1z"></path>
<path d="M58.458 14.458v-11.016l-13.125 1.641v9.375h13.125z"></path>
<path d="M60.333 14.458h15v-13.125l-15 1.875v11.25z"></path>
<path d="M60.333 16.333v11.25l15 1.875v-13.125h-15z"></path>
<path d="M58.458 16.333h-13.125v9.375l13.125 1.641v-11.016z"></path>
</symbol>
<symbol id="icon-android" viewBox="0 0 27 32">
<path d="M2.041 10.653c-1.102 0-1.996 0.894-1.996 1.996v9.315c0 1.102 0.894 1.996 1.996 1.996s1.996-0.894 1.996-1.996v-9.315c0-1.102-0.894-1.996-1.996-1.996z"></path>
<path d="M24.664 10.653c-1.102 0-1.996 0.894-1.996 1.996v9.315c0 1.102 0.894 1.996 1.996 1.996s1.996-0.894 1.996-1.996v-9.315c0-1.102-0.894-1.996-1.996-1.996z"></path>
<path d="M20.672 10.653h-14.638c-0.367 0-0.665 0.298-0.665 0.665v10.646c-0 1.581 1.112 2.944 2.662 3.26v4.724c0 1.102 0.894 1.996 1.996 1.996s1.996-0.894 1.996-1.996v-4.658h2.661v4.658c0 1.102 0.894 1.996 1.996 1.996s1.996-0.894 1.996-1.996v-4.724c1.549-0.316 2.662-1.679 2.662-3.26v-10.646c-0-0.367-0.298-0.665-0.665-0.665z"></path>
<path d="M18.19 2.765l1.622-1.621c0.264-0.255 0.272-0.676 0.016-0.941s-0.677-0.272-0.941-0.016c-0.006 0.005-0.011 0.011-0.016 0.016l-1.89 1.89c-2.314-1.005-4.942-1.005-7.257 0l-1.89-1.891c-0.264-0.255-0.686-0.248-0.941 0.016-0.249 0.258-0.249 0.667 0 0.924l1.621 1.622c-1.976 1.307-3.159 3.523-3.147 5.892 0 0.367 0.298 0.665 0.665 0.665h14.638c0.367 0 0.665-0.298 0.665-0.665 0.012-2.369-1.171-4.585-3.147-5.892z"></path>
<path d="M10.691 5.996c0 0.367-0.298 0.665-0.665 0.665s-0.665-0.298-0.665-0.665c0-0.367 0.298-0.665 0.665-0.665s0.665 0.298 0.665 0.665z"></path>
<path d="M17.345 5.996c0 0.367-0.298 0.665-0.665 0.665s-0.665-0.298-0.665-0.665c0-0.367 0.298-0.665 0.665-0.665s0.665 0.298 0.665 0.665z"></path>
</symbol>
<symbol id="icon-appel" viewBox="0 0 27 32">
<path d="M15.248 6.979c-0.62 0.246-1.263 0.375-1.932 0.357-0.127-0.002-0.176-0.036-0.183-0.17-0.104-1.267 0.236-2.426 0.846-3.517 1.044-1.864 2.631-3.015 4.694-3.521 0.176-0.044 0.358-0.068 0.55-0.093 0.084-0.011 0.171-0.022 0.26-0.035 0.003 0.085 0.007 0.165 0.011 0.242 0.006 0.117 0.011 0.228 0.013 0.339 0.044 2.286-1.433 5.276-4.259 6.397zM25.942 23.575c0.033-0.097 0.065-0.192 0.098-0.284-2.498-1.243-4.021-3.157-4.211-5.988-0.188-2.828 1.104-4.917 3.372-6.499-0.016-0.024-0.038-0.057-0.060-0.088l-0.009-0.012c-0.9-1.262-2.091-2.129-3.555-2.619-1.033-0.346-2.094-0.487-3.182-0.399-0.727 0.058-1.424 0.262-2.109 0.512-0.668 0.248-1.335 0.501-2.001 0.756-0.602 0.23-1.2 0.23-1.801 0.004-0.652-0.244-1.304-0.491-1.954-0.74-1.235-0.476-2.494-0.6-3.789-0.295-2.153 0.504-3.789 1.726-4.949 3.592-0.924 1.484-1.326 3.132-1.428 4.861-0.087 1.443 0.055 2.866 0.352 4.277 0.689 3.283 2.116 6.213 4.241 8.805 0.449 0.546 0.929 1.061 1.5 1.484 0.46 0.34 0.956 0.604 1.524 0.71 0.65 0.123 1.288 0.039 1.903-0.167 0.37-0.125 0.732-0.273 1.093-0.421 0.157-0.064 0.314-0.129 0.472-0.191 1.444-0.571 2.905-0.641 4.373-0.108 0.293 0.106 0.581 0.229 0.868 0.352 0.156 0.067 0.313 0.134 0.47 0.198 0.616 0.251 1.255 0.372 1.921 0.35 0.886-0.031 1.652-0.372 2.318-0.935 0.337-0.284 0.663-0.589 0.943-0.927 1.451-1.735 2.646-3.628 3.434-5.761 0.059-0.157 0.112-0.315 0.165-0.469z"></path>
</symbol>
</defs>
</svg>
